# xmcd CD database file
#
# Track frame offsets:
#	150
#	13258
#	26893
#	41025
#	54735
#	68063
#	80400
#	93532
#	107831
#	122394
#	135878
#	149793
#	163813
#	177473
#	191069
#	205551
#	219822
#	241420
#	263261
#	285725
#	298400
#	313091
#
# Disc length: 4359 seconds
#
# Revision: 0
# Processed by: cddbd v1.5.2PL0 Copyright (c) Steve Scherf et al.
# Submitted via: CDex 1.51
#
DISCID=4d110516
DTITLE=Red Nichols - The Complete Brunswick Recordings - Volume 8
DYEAR=1900
DGENRE=Jazz
TTITLE0=How Long How Long Blues
TTITLE1=Fan It 1
TTITLE2=Fan It 2
TTITLE3=Oh Peter
TTITLE4=Honolulu Blues
TTITLE5=Get Cannibal
TTITLE6=Junk Man's Blues
TTITLE7=Slow And Easy
TTITLE8=Waitin' For The Evenin' Mail
TTITLE9=Yaaka Hula Hickey Dula
TTITLE10=Haunting Blues 1
TTITLE11=Haunting Blues 2
TTITLE12=Twenty One Years 1
TTITLE13=Twenty One Years 2
TTITLE14=My Sweetie Went Away 1
TTITLE15=My Sweetie Went Away 2
TTITLE16=New Orleans (Part 1)
TTITLE17=New Orleans (Part 2) 1
TTITLE18=New Orleans (Part 2) 2
TTITLE19=Clarinet Marmalade
TTITLE20=Sweet Sue - Just You 1
TTITLE21=Sweet Sue - Just You 2
EXTD=
EXTT0=
EXTT1=
EXTT2=
EXTT3=
EXTT4=
EXTT5=
EXTT6=
EXTT7=
EXTT8=
EXTT9=
EXTT10=
EXTT11=
EXTT12=
EXTT13=
EXTT14=
EXTT15=
EXTT16=
EXTT17=
EXTT18=
EXTT19=
EXTT20=
EXTT21=
PLAYORDER=
